<svg id="Layer_1" data-name="Layer 1" xmlns="http://www.w3.org/2000/svg" viewBox="0 0 1023.31 1023.31"><defs><style>.cls-1{fill:#1877f2;}.cls-2{fill:#fff;}</style></defs><title>Tavola disegno 1</title><path class="cls-1" d="M1023.65,511.65c0-282.77-229.23-512-512-512s-512,229.23-512,512c0,255.55,187.23,467.37,432,505.78V659.65h-130v-148h130V398.85c0-128.32,76.44-199.2,193.39-199.2,56,0,114.61,10,114.61,10v126H675.09c-63.6,0-83.44,39.47-83.44,80v96h142l-22.7,148H591.65v357.78C836.42,979,1023.65,767.2,1023.65,511.65Z"/><path class="cls-2" d="M711,659.65l22.7-148h-142v-96c0-40.49,19.84-80,83.44-80h64.56v-126s-58.59-10-114.61-10c-116.95,0-193.39,70.88-193.39,199.2v112.8h-130v148h130v357.78a517.17,517.17,0,0,0,160,0V659.65Z"/></svg>