<svg id="Livello_1" data-name="Livello 1" xmlns="http://www.w3.org/2000/svg" xmlns:xlink="http://www.w3.org/1999/xlink" viewBox="0 0 130 130"><defs><style>.cls-1{fill:url(#Sfumatura_senza_nome);}.cls-2{fill:url(#Sfumatura_senza_nome_2);}.cls-3{fill:#fff;}</style><radialGradient id="Sfumatura_senza_nome" cx="-252.69" cy="-217.48" r="65" gradientTransform="matrix(0, -1.98, -1.84, 0, -366.47, -360.82)" gradientUnits="userSpaceOnUse"><stop offset="0" stop-color="#fd5"/><stop offset="0.1" stop-color="#fd5"/><stop offset="0.5" stop-color="#ff543e"/><stop offset="1" stop-color="#c837ab"/></radialGradient><radialGradient id="Sfumatura_senza_nome_2" cx="359.78" cy="55.36" r="65" gradientTransform="matrix(0.17, 0.87, 3.58, -0.72, -282.65, -263.48)" gradientUnits="userSpaceOnUse"><stop offset="0" stop-color="#3771c8"/><stop offset="0.13" stop-color="#3771c8"/><stop offset="1" stop-color="#60f" stop-opacity="0"/></radialGradient></defs><title>Tavola disegno 1</title><path class="cls-1" d="M65,0C37.89,0,30,0,28.41.15c-5.57.47-9,1.34-12.81,3.22A26,26,0,0,0,8.13,8.84,27.83,27.83,0,0,0,.6,24.65c-.44,3-.57,3.66-.6,19.19C0,49,0,55.83,0,65,0,92.09,0,100,.16,101.56c.45,5.42,1.3,8.83,3.1,12.56A27.39,27.39,0,0,0,21,128.62a46.13,46.13,0,0,0,9.44,1.25c1.61.07,18,.12,34.44.12s32.84,0,34.41-.1a44.55,44.55,0,0,0,9.78-1.28,27.22,27.22,0,0,0,17.75-14.53,32.12,32.12,0,0,0,3.07-12.32c.08-1.12.12-19,.12-36.81s0-35.66-.13-36.78a31.79,31.79,0,0,0-3.12-12.44,25.83,25.83,0,0,0-5.57-7.62A28.1,28.1,0,0,0,105.37.59c-3-.43-3.64-.56-19.18-.59Z"/><path class="cls-2" d="M65,0C37.89,0,30,0,28.41.15c-5.57.47-9,1.34-12.81,3.22A26,26,0,0,0,8.13,8.84,27.83,27.83,0,0,0,.6,24.65c-.44,3-.57,3.66-.6,19.19C0,49,0,55.83,0,65,0,92.09,0,100,.16,101.56c.45,5.42,1.3,8.83,3.1,12.56A27.39,27.39,0,0,0,21,128.62a46.13,46.13,0,0,0,9.44,1.25c1.61.07,18,.12,34.44.12s32.84,0,34.41-.1a44.55,44.55,0,0,0,9.78-1.28,27.22,27.22,0,0,0,17.75-14.53,32.12,32.12,0,0,0,3.07-12.32c.08-1.12.12-19,.12-36.81s0-35.66-.13-36.78a31.79,31.79,0,0,0-3.12-12.44,25.83,25.83,0,0,0-5.57-7.62A28.1,28.1,0,0,0,105.37.59c-3-.43-3.64-.56-19.18-.59Z"/><path class="cls-3" d="M65,17c-13,0-14.67.06-19.79.29a35,35,0,0,0-11.65,2.23,23.3,23.3,0,0,0-8.5,5.53,23.57,23.57,0,0,0-5.54,8.51,35,35,0,0,0-2.23,11.65C17.06,50.33,17,52,17,65s.05,14.67.29,19.79a35.09,35.09,0,0,0,2.23,11.65,24.54,24.54,0,0,0,14,14,35.4,35.4,0,0,0,11.65,2.23c5.12.23,6.76.29,19.79.29s14.67-.06,19.79-.29a35.41,35.41,0,0,0,11.66-2.23,24.59,24.59,0,0,0,14-14,35.66,35.66,0,0,0,2.23-11.65c.23-5.12.29-6.76.29-19.79s-.06-14.67-.29-19.79a35.55,35.55,0,0,0-2.23-11.65,23.57,23.57,0,0,0-5.54-8.51,23.38,23.38,0,0,0-8.5-5.53,35.15,35.15,0,0,0-11.66-2.23C79.66,17.06,78,17,65,17Zm-4.31,8.65H65c12.82,0,14.34,0,19.4.27a26.58,26.58,0,0,1,8.91,1.66,14.75,14.75,0,0,1,5.51,3.59,15,15,0,0,1,3.6,5.52,26.65,26.65,0,0,1,1.65,8.91c.23,5.06.28,6.58.28,19.39s0,14.33-.28,19.39a26.65,26.65,0,0,1-1.65,8.91,16,16,0,0,1-9.11,9.1,26.58,26.58,0,0,1-8.91,1.66c-5.06.23-6.58.28-19.4.28s-14.34,0-19.4-.28a26.58,26.58,0,0,1-8.91-1.66,15.89,15.89,0,0,1-9.11-9.11,26.39,26.39,0,0,1-1.65-8.91c-.23-5.06-.28-6.58-.28-19.39s.05-14.33.28-19.39a26.52,26.52,0,0,1,1.65-8.92,15.89,15.89,0,0,1,9.11-9.11,26.39,26.39,0,0,1,8.91-1.65c4.43-.2,6.15-.26,15.09-.27Zm29.93,8a5.76,5.76,0,1,0,5.76,5.76,5.76,5.76,0,0,0-5.76-5.76ZM65,40.35A24.65,24.65,0,1,0,89.65,65,24.65,24.65,0,0,0,65,40.35ZM65,49A16,16,0,1,1,49,65,16,16,0,0,1,65,49Z"/></svg>