<svg id="Layer_1" data-name="Layer 1" xmlns="http://www.w3.org/2000/svg" viewBox="0 0 58 44.82"><defs><style>.cls-1{fill:#fff;}.cls-2{fill:#4267b2;}.cls-3{fill:#32363b;}</style></defs><title>58</title><path class="cls-1" d="M39.33,26.28l-.72.22.45.6a1.55,1.55,0,0,1,.32.94,1.57,1.57,0,0,1-1.31,1.55l-.71.12.33.64a1.54,1.54,0,0,1,.18.72,1.57,1.57,0,0,1-1.47,1.56h-9a3.34,3.34,0,0,1-1.92-.7,2.26,2.26,0,0,0-.5-.33l-.2-.08V23.17l.95-.81,3.18-5.89a2.68,2.68,0,0,0,.3-.75,2.45,2.45,0,0,0,.07-.81L29,11.6a1.36,1.36,0,0,1,.72-.19c1.37,0,2.55,2.19,2.55,4a4.52,4.52,0,0,1-.06.74l-.55,3.58h6.89a1.69,1.69,0,0,1,1.19.5,1.52,1.52,0,0,1,.46,1.08,1.53,1.53,0,0,1-.63,1.23l-.64.49.7.4a1.57,1.57,0,0,1-.3,2.86Z"/><path class="cls-2" d="M17.12,21.52a0,0,0,0,0,0,0V33.83s0,0,0,0h7.07a0,0,0,0,0,0,0V21.55a0,0,0,0,0,0,0Z"/><path class="cls-3" d="M41.49,24.78a2.64,2.64,0,0,0-.79-1.88,2.65,2.65,0,0,0,.56-1.59,2.58,2.58,0,0,0-.77-1.83,2.74,2.74,0,0,0-1.94-.82H32.89l.37-2.36a6.82,6.82,0,0,0,.07-.9c0-2.34-1.58-5.05-3.61-5.05a2.54,2.54,0,0,0-1.61.58l-.21.18L28.19,15a1.59,1.59,0,0,1-.23.94l-3.1,5.75-.12.1a1.1,1.1,0,0,0-1.07-.93h-6a1.09,1.09,0,0,0-1.09,1.09V33.3a1.09,1.09,0,0,0,1.09,1.09h6a1.08,1.08,0,0,0,1.08-1.09v-.57h0a4.42,4.42,0,0,0,2.61.95h9.08a2.63,2.63,0,0,0,2.48-2.62,2.57,2.57,0,0,0-.08-.62A2.61,2.61,0,0,0,40.44,28a2.55,2.55,0,0,0-.21-1A2.61,2.61,0,0,0,41.49,24.78ZM23.69,33.3s0,0,0,0h-6a0,0,0,0,1,0,0V21.94a0,0,0,0,1,0,0h6s0,0,0,0V33.3Zm15.64-7-.72.22.45.6a1.55,1.55,0,0,1,.32.94,1.57,1.57,0,0,1-1.31,1.55l-.71.12.33.64a1.54,1.54,0,0,1,.18.72,1.57,1.57,0,0,1-1.47,1.56h-9a3.34,3.34,0,0,1-1.92-.7,2.26,2.26,0,0,0-.5-.33l-.2-.08V23.17l.95-.81,3.18-5.89a2.68,2.68,0,0,0,.3-.75,2.45,2.45,0,0,0,.07-.81L29,11.6a1.36,1.36,0,0,1,.72-.19c1.37,0,2.55,2.19,2.55,4a4.52,4.52,0,0,1-.06.74l-.55,3.58h6.89a1.69,1.69,0,0,1,1.19.5,1.52,1.52,0,0,1,.46,1.08,1.53,1.53,0,0,1-.63,1.23l-.64.49.7.4a1.57,1.57,0,0,1-.3,2.86Z"/></svg>