<svg xmlns="http://www.w3.org/2000/svg" viewBox="0 0 598.25 599.89"><defs><style>.cls-1{fill:#25d366;}.cls-2{fill:#fff;fill-rule:evenodd;}</style></defs><title>Artboard 1</title><g id="background"><rect id="background-2" data-name="background" class="cls-1" x="-337.87" y="-237.43" width="1280.24" height="1066.86" rx="19.86" ry="19.86"/></g><g id="WhatsApp_Logo" data-name="WhatsApp Logo"><g id="WA_Logo" data-name="WA Logo"><path class="cls-2" d="M450.76,149.15A207.25,207.25,0,0,0,303.23,88c-115,0-208.51,93.56-208.56,208.54a208.17,208.17,0,0,0,27.84,104.27L92.92,508.86l110.56-29a208.4,208.4,0,0,0,99.66,25.38h.09c114.94,0,208.51-93.56,208.55-208.55A207.32,207.32,0,0,0,450.76,149.15ZM303.23,470h-.07a173.1,173.1,0,0,1-88.23-24.16l-6.33-3.76L143,459.31l17.52-64-4.13-6.56a173,173,0,0,1-26.5-92.25c0-95.58,77.8-173.33,173.42-173.33A173.36,173.36,0,0,1,476.57,296.68C476.53,392.26,398.77,470,303.23,470ZM398.31,340.2c-5.21-2.61-30.83-15.22-35.61-17s-8.25-2.6-11.72,2.61-13.46,17-16.5,20.43-6.08,3.92-11.29,1.31-22-8.11-41.91-25.87c-15.49-13.82-25.95-30.88-29-36.1s-.32-8,2.29-10.63c2.34-2.34,5.21-6.09,7.81-9.13s3.48-5.22,5.21-8.69.87-6.53-.43-9.13-11.72-28.26-16.07-38.7c-4.23-10.16-8.52-8.78-11.72-8.94-3-.15-6.52-.19-10-.19a19.19,19.19,0,0,0-13.9,6.52c-4.77,5.22-18.23,17.83-18.23,43.48s18.67,50.43,21.27,53.9,36.75,56.12,89,78.69a299.53,299.53,0,0,0,29.71,11c12.49,4,23.85,3.4,32.82,2.06,10-1.49,30.84-12.6,35.18-24.78s4.34-22.6,3-24.78S403.52,342.81,398.31,340.2Z"/></g></g></svg>